<?xml version="1.0" encoding="UTF-8" standalone="no"?>
<!DOCTYPE svg PUBLIC "-//W3C//DTD SVG 1.1//EN" "http://www.w3.org/Graphics/SVG/1.1/DTD/svg11.dtd">
<svg xmlns="http://www.w3.org/2000/svg" version="1.1" viewBox="0 0 320 320">
<g stroke-width="2.00" fill="none" stroke-linecap="butt">
<path stroke="#9b052b" vector-effect="non-scaling-stroke" d="
  M 233.9666 38.8567
  C 234.10 38.62 234.02 38.32 233.7861 38.1876
  L 213.1886 26.3436
  C 212.95 26.21 212.65 26.29 212.5196 26.5241
  L 188.1734 68.8633
  C 188.04 69.10 188.12 69.40 188.3539 69.5324
  L 208.9514 81.3764
  C 209.19 81.51 209.49 81.43 209.6204 81.1959
  L 233.9666 38.8567"
/>
<path stroke="#9b052b" vector-effect="non-scaling-stroke" d="
  M 298.9991 76.3137
  C 299.11 76.13 299.04 75.89 298.8563 75.7810
  L 278.1237 63.8110
  C 277.94 63.70 277.70 63.77 277.5909 63.9537
  L 253.0809 106.4063
  C 252.97 106.59 253.04 106.83 253.2237 106.9390
  L 273.9563 118.9090
  C 274.14 119.02 274.38 118.95 274.4891 118.7663
  L 298.9991 76.3137"
/>
<path stroke="#0085dc" vector-effect="non-scaling-stroke" d="
  M 144.75 228.79
  L 144.99 228.98
  C 145.12 229.08 145.15 229.26 145.07 229.40
  L 133.27 249.98
  C 132.99 250.46 133.16 251.07 133.63 251.34
  L 153.49 262.80
  C 153.97 263.08 154.14 263.69 153.86 264.16
  L 142.48 283.95
  C 142.20 284.42 142.37 285.03 142.84 285.31
  L 162.75 296.79"
/>
<path stroke="#016399" vector-effect="non-scaling-stroke" d="
  M 64.19 320.00
  L 73.07 304.13
  C 73.34 303.64 73.96 303.47 74.44 303.75
  L 94.36 315.25
  C 94.84 315.53 95.45 315.36 95.73 314.88
  L 107.20 294.99
  C 107.47 294.51 107.31 293.91 106.83 293.63
  L 22.03 244.64
  C 21.55 244.36 20.94 244.52 20.66 245.00
  L 9.16 264.90
  C 8.88 265.38 9.04 265.99 9.52 266.27
  L 29.40 277.75
  C 29.87 278.03 30.04 278.64 29.76 279.11
  L 18.30 299.03
  C 18.02 299.50 18.19 300.11 18.66 300.39
  L 52.24 319.91"
/>
<path stroke="#0085dc" vector-effect="non-scaling-stroke" d="
  M 0.00 203.44
  L 11.08 209.51
  C 11.56 209.77 12.16 209.60 12.43 209.13
  L 23.98 189.21
  C 24.26 188.74 24.87 188.57 25.34 188.85
  C 27.70 190.19 46.04 200.45 46.04 201.00"
/>
<path stroke="#016399" vector-effect="non-scaling-stroke" d="
  M 46.04 201.00
  L 34.19 221.56
  C 33.92 222.04 34.08 222.65 34.56 222.93
  L 54.41 234.44
  C 54.89 234.72 55.50 234.56 55.78 234.08
  L 67.24 214.18
  C 67.51 213.70 67.35 213.09 66.87 212.81
  L 46.50 200.96"
/>
<path stroke="#0085dc" vector-effect="non-scaling-stroke" d="
  M 46.50 200.96
  L 46.37 200.74
  C 46.32 200.66 46.31 200.56 46.36 200.48
  L 58.09 180.06
  C 58.37 179.59 58.20 178.98 57.73 178.70
  L 37.91 167.16
  C 37.43 166.88 37.27 166.28 37.54 165.80
  L 48.84 145.91
  C 49.11 145.44 48.95 144.84 48.49 144.56
  L 27.12 131.66"
/>
<path stroke="#016399" vector-effect="non-scaling-stroke" d="
  M 132.4679 251.2497
  C 132.59 251.03 132.52 250.76 132.3043 250.6347
  L 111.5234 238.5884
  C 111.31 238.46 111.03 238.54 110.9084 238.7521
  L 98.8521 259.5503
  C 98.73 259.77 98.80 260.04 99.0157 260.1653
  L 119.7966 272.2116
  C 120.01 272.34 120.29 272.26 120.4116 272.0479
  L 132.4679 251.2497"
/>
<path stroke="#013976" vector-effect="non-scaling-stroke" d="
  M 46.50 200.96
  L 46.04 201.00"
/>
<path stroke="#0085dc" vector-effect="non-scaling-stroke" d="
  M 200.25 231.79
  C 193.14 228.13 186.22 224.13 179.50 219.79"
/>
<path stroke="#0085dc" vector-effect="non-scaling-stroke" d="
  M 179.25 219.79
  L 167.28 240.72
  C 167.00 241.20 166.39 241.37 165.91 241.09
  C 163.78 239.87 145.51 229.75 145.46 228.75"
/>
</g>
<path fill="#ff004d" d="
  M 170.49 -0.04
  L 320.00 0.00
  L 320.00 140.31
  L 318.21 143.42
  C 317.93 143.90 317.32 144.07 316.85 143.79
  L 296.87 132.25
  C 296.39 131.97 295.78 132.13 295.50 132.61
  L 284.01 152.57
  C 283.73 153.04 283.90 153.65 284.38 153.93
  L 304.32 165.42
  C 304.80 165.70 304.97 166.31 304.69 166.79
  L 293.19 186.75
  C 292.91 187.23 292.30 187.39 291.82 187.11
  L 271.91 175.54
  C 271.43 175.26 271.26 174.65 271.54 174.18
  L 283.05 154.28
  C 283.33 153.80 283.17 153.19 282.69 152.91
  L 262.70 141.41
  C 262.23 141.13 261.62 141.30 261.34 141.77
  L 249.82 161.67
  C 249.54 162.15 248.93 162.31 248.45 162.03
  L 163.64 113.07
  C 163.16 112.79 162.99 112.18 163.27 111.70
  L 174.77 91.78
  C 175.05 91.30 174.89 90.69 174.41 90.41
  L 154.52 78.93
  C 154.04 78.65 153.87 78.04 154.15 77.56
  L 165.67 57.64
  C 165.95 57.17 165.78 56.56 165.30 56.28
  L 145.31 44.76
  C 144.83 44.48 144.67 43.86 144.95 43.38
  L 170.49 -0.04
  Z
  M 233.9666 38.8567
  C 234.10 38.62 234.02 38.32 233.7861 38.1876
  L 213.1886 26.3436
  C 212.95 26.21 212.65 26.29 212.5196 26.5241
  L 188.1734 68.8633
  C 188.04 69.10 188.12 69.40 188.3539 69.5324
  L 208.9514 81.3764
  C 209.19 81.51 209.49 81.43 209.6204 81.1959
  L 233.9666 38.8567
  Z
  M 298.9991 76.3137
  C 299.11 76.13 299.04 75.89 298.8563 75.7810
  L 278.1237 63.8110
  C 277.94 63.70 277.70 63.77 277.5909 63.9537
  L 253.0809 106.4063
  C 252.97 106.59 253.04 106.83 253.2237 106.9390
  L 273.9563 118.9090
  C 274.14 119.02 274.38 118.95 274.4891 118.7663
  L 298.9991 76.3137
  Z"
/>
<rect fill="#370909" x="-12.37" y="-24.91" transform="translate(211.07,53.86) rotate(29.9)" width="24.74" height="49.82" rx="0.49"/>
<rect fill="#370909" x="-12.36" y="-24.90" transform="translate(276.04,91.36) rotate(30.0)" width="24.72" height="49.80" rx="0.39"/>
<rect fill="#ff004d" x="-12.52" y="-12.50" transform="translate(136.54,83.00) rotate(30.0)" width="25.04" height="25.00" rx="0.38"/>
<path fill="#00afff" d="
  M 144.75 228.79
  L 144.99 228.98
  C 145.12 229.08 145.15 229.26 145.07 229.40
  L 133.27 249.98
  C 132.99 250.46 133.16 251.07 133.63 251.34
  L 153.49 262.80
  C 153.97 263.08 154.14 263.69 153.86 264.16
  L 142.48 283.95
  C 142.20 284.42 142.37 285.03 142.84 285.31
  L 162.75 296.79
  L 148.97 320.02
  L 64.19 320.00
  L 73.07 304.13
  C 73.34 303.64 73.96 303.47 74.44 303.75
  L 94.36 315.25
  C 94.84 315.53 95.45 315.36 95.73 314.88
  L 107.20 294.99
  C 107.47 294.51 107.31 293.91 106.83 293.63
  L 22.03 244.64
  C 21.55 244.36 20.94 244.52 20.66 245.00
  L 9.16 264.90
  C 8.88 265.38 9.04 265.99 9.52 266.27
  L 29.40 277.75
  C 29.87 278.03 30.04 278.64 29.76 279.11
  L 18.30 299.03
  C 18.02 299.50 18.19 300.11 18.66 300.39
  L 52.24 319.91
  L 2.69 320.00
  C 1.63 319.61 0.73 319.01 0.00 318.19
  L 0.00 203.44
  L 11.08 209.51
  C 11.56 209.77 12.16 209.60 12.43 209.13
  L 23.98 189.21
  C 24.26 188.74 24.87 188.57 25.34 188.85
  C 27.70 190.19 46.04 200.45 46.04 201.00
  L 34.19 221.56
  C 33.92 222.04 34.08 222.65 34.56 222.93
  L 54.41 234.44
  C 54.89 234.72 55.50 234.56 55.78 234.08
  L 67.24 214.18
  C 67.51 213.70 67.35 213.09 66.87 212.81
  L 46.50 200.96
  L 46.37 200.74
  C 46.32 200.66 46.31 200.56 46.36 200.48
  L 58.09 180.06
  C 58.37 179.59 58.20 178.98 57.73 178.70
  L 37.91 167.16
  C 37.43 166.88 37.27 166.28 37.54 165.80
  L 48.84 145.91
  C 49.11 145.44 48.95 144.84 48.49 144.56
  L 27.12 131.66
  L 38.93 111.19
  C 39.21 110.71 39.82 110.55 40.29 110.83
  L 61.10 122.88
  C 61.57 123.16 61.74 123.77 61.46 124.24
  L 49.97 144.16
  C 49.69 144.64 49.86 145.25 50.34 145.53
  L 70.29 157.03
  C 70.77 157.31 70.94 157.92 70.66 158.40
  L 59.16 178.33
  C 58.88 178.81 59.04 179.42 59.52 179.70
  L 79.41 191.17
  C 79.89 191.45 80.50 191.28 80.78 190.80
  L 92.27 170.88
  C 92.55 170.40 93.16 170.24 93.64 170.52
  L 135.25 194.53
  C 135.73 194.81 135.90 195.42 135.62 195.90
  L 124.10 215.77
  C 123.82 216.25 123.99 216.86 124.47 217.14
  L 144.75 228.79
  Z
  M 132.4679 251.2497
  C 132.59 251.03 132.52 250.76 132.3043 250.6347
  L 111.5234 238.5884
  C 111.31 238.46 111.03 238.54 110.9084 238.7521
  L 98.8521 259.5503
  C 98.73 259.77 98.80 260.04 99.0157 260.1653
  L 119.7966 272.2116
  C 120.01 272.34 120.29 272.26 120.4116 272.0479
  L 132.4679 251.2497
  Z"
/>
<path fill="#005ab9" d="
  M 27.12 131.66
  L 48.49 144.56
  C 48.95 144.84 49.11 145.44 48.84 145.91
  L 37.54 165.80
  C 37.27 166.28 37.43 166.88 37.91 167.16
  L 57.73 178.70
  C 58.20 178.98 58.37 179.59 58.09 180.06
  L 46.36 200.48
  C 46.31 200.56 46.32 200.66 46.37 200.74
  L 46.50 200.96
  L 46.04 201.00
  C 46.04 200.45 27.70 190.19 25.34 188.85
  C 24.87 188.57 24.26 188.74 23.98 189.21
  L 12.43 209.13
  C 12.16 209.60 11.56 209.77 11.08 209.51
  L 0.00 203.44
  L 0.00 178.69
  L 1.52 176.19
  C 1.80 175.72 2.41 175.57 2.88 175.84
  L 23.61 187.83
  C 24.09 188.11 24.70 187.94 24.98 187.46
  L 36.46 167.52
  C 36.73 167.04 36.57 166.44 36.09 166.16
  L 15.29 154.14
  C 14.81 153.86 14.64 153.25 14.92 152.78
  L 27.12 131.66
  Z"
/>
<path fill="#00afff" d="
  M 200.25 231.79
  C 193.14 228.13 186.22 224.13 179.50 219.79
  L 191.34 199.21
  C 191.62 198.73 192.23 198.57 192.71 198.85
  L 211.84 209.88
  C 212.32 210.16 212.48 210.77 212.20 211.25
  L 200.25 231.79
  Z"
/>
<path fill="#011733" d="
  M 46.04 201.00
  L 46.50 200.96
  L 66.87 212.81
  C 67.35 213.09 67.51 213.70 67.24 214.18
  L 55.78 234.08
  C 55.50 234.56 54.89 234.72 54.41 234.44
  L 34.56 222.93
  C 34.08 222.65 33.92 222.04 34.19 221.56
  L 46.04 201.00
  Z"
/>
<path fill="#00afff" d="
  M 179.25 219.79
  L 167.28 240.72
  C 167.00 241.20 166.39 241.37 165.91 241.09
  C 163.78 239.87 145.51 229.75 145.46 228.75
  L 157.31 208.42
  C 157.59 207.94 158.19 207.78 158.67 208.05
  L 179.25 219.79
  Z"
/>
<path fill="#005ab9" d="
  M 179.25 219.79
  L 179.50 219.79
  C 186.22 224.13 193.14 228.13 200.25 231.79
  L 188.16 252.81
  C 187.88 253.29 187.27 253.46 186.79 253.18
  L 167.75 242.15
  C 167.27 241.87 166.66 242.03 166.38 242.51
  L 154.89 262.45
  C 154.62 262.93 154.78 263.54 155.26 263.82
  L 174.33 274.85
  C 174.81 275.13 174.98 275.74 174.70 276.22
  L 162.75 296.79
  L 142.84 285.31
  C 142.37 285.03 142.20 284.42 142.48 283.95
  L 153.86 264.16
  C 154.14 263.69 153.97 263.08 153.49 262.80
  L 133.63 251.34
  C 133.16 251.07 132.99 250.46 133.27 249.98
  L 145.07 229.40
  C 145.15 229.26 145.12 229.08 144.99 228.98
  L 144.75 228.79
  L 145.46 228.75
  C 145.51 229.75 163.78 239.87 165.91 241.09
  C 166.39 241.37 167.00 241.20 167.28 240.72
  L 179.25 219.79
  Z"
/>
<rect fill="#011733" x="-12.46" y="-12.47" transform="translate(115.66,255.40) rotate(30.1)" width="24.92" height="24.94" rx="0.45"/>
<path fill="#011733" d="
  M 64.19 320.00
  L 52.24 319.91
  L 18.66 300.39
  C 18.19 300.11 18.02 299.50 18.30 299.03
  L 29.76 279.11
  C 30.04 278.64 29.87 278.03 29.40 277.75
  L 9.52 266.27
  C 9.04 265.99 8.88 265.38 9.16 264.90
  L 20.66 245.00
  C 20.94 244.52 21.55 244.36 22.03 244.64
  L 106.83 293.63
  C 107.31 293.91 107.47 294.51 107.20 294.99
  L 95.73 314.88
  C 95.45 315.36 94.84 315.53 94.36 315.25
  L 74.44 303.75
  C 73.96 303.47 73.34 303.64 73.07 304.13
  L 64.19 320.00
  Z"
/>
</svg>
