<svg version="1.1" id="Layer_1" xmlns="http://www.w3.org/2000/svg" xmlns:xlink="http://www.w3.org/1999/xlink" x="0px" y="0px" width="100%" viewBox="0 0 320 320" enable-background="new 0 0 320 320" xml:space="preserve">
<!-- <path fill="#FFFEFF" opacity="1.000000" stroke="none" d=" M321.000000,142.000000   C321.000000,201.591812 321.000000,261.183624 321.000000,321.000000   C264.645966,321.000000 208.291641,321.000000 151.483612,320.642548   C155.130096,312.907227 159.230255,305.529358 163.591690,297.960754   C167.948776,290.680237 172.044617,283.590485 176.228653,276.348053   C169.119766,272.191284 162.478165,268.307739 155.627991,264.302216   C159.713745,256.988220 163.564682,250.094543 167.558197,243.221771   C167.700775,243.242691 167.863327,243.004715 168.222931,243.060638   C175.182999,246.931198 181.783432,250.745850 188.798431,254.800079   C192.907364,247.457397 196.944626,240.242752 201.233795,232.795746   C205.511368,225.620087 209.537018,218.676773 213.777756,211.362457   C206.497040,207.160339 199.837921,203.316971 192.977737,199.357574   C188.474564,206.806519 184.230118,213.827499 179.692856,220.605270   C172.543991,216.425781 165.687927,212.489517 158.717392,208.487518   C154.345978,215.975586 150.283463,222.934509 146.138809,230.034134   C138.648453,225.680145 131.792480,221.694916 124.787270,217.622940   C129.008286,210.251648 133.013550,203.257126 137.180115,195.980927   C122.476402,187.504105 108.179611,179.261856 93.760574,170.949142   C89.425430,178.394028 85.431946,185.252182 81.200310,192.519302   C73.922722,188.301559 66.969711,184.271912 59.837978,180.138687   C64.105988,172.672256 68.109848,165.667908 72.186005,158.537079   C64.817039,154.217010 57.852604,150.134094 50.698559,145.940018   C54.960075,138.493774 58.960167,131.504333 63.068302,124.326103   C55.397213,119.909904 48.083523,115.699455 40.295914,111.216171   C36.015583,118.923500 31.925209,126.288780 27.544991,133.866653   C23.387663,140.800842 19.520174,147.522446 15.412577,154.661346   C23.063002,159.086899 30.351721,163.303207 37.661514,167.537903   C37.682583,167.556305 37.726967,167.590332 37.658882,167.811768   C37.590801,168.033188 37.866932,168.405212 37.600555,168.588379   C37.194164,169.169891 37.054150,169.568237 36.633114,170.158997   C32.841324,176.529358 29.330555,182.707306 25.629402,188.892960   C25.439016,188.900665 25.090530,189.054871 24.776852,188.891113   C18.341764,185.169098 12.154853,181.716904 6.132406,177.998352   C3.843737,176.585251 2.310144,176.587967 1.000000,179.000000   C1.000000,119.741325 1.000000,60.482655 1.000000,1.000000   C57.354031,1.000000 113.708359,1.000000 170.386353,1.312107   C162.340546,16.092075 153.971085,30.559937 145.492249,45.216862   C153.021530,49.618767 159.979797,53.686829 167.067123,57.830349   C162.782883,65.326500 158.785553,72.320618 154.718384,79.436966   C162.156784,83.766678 169.130310,87.825790 176.190720,91.935478   C171.893692,99.473061 167.905090,106.469597 163.834763,113.609528   C192.904556,130.387894 221.506256,146.896088 250.309845,163.520798   C254.606400,156.154037 258.678345,149.172348 262.843506,142.030869   C270.242096,146.191254 277.162415,150.082718 284.073792,154.338913   C280.167908,161.737762 276.270905,168.771866 272.185486,176.146103   C279.497711,180.370483 286.452362,184.388290 293.704987,188.578247   C297.946869,181.223984 301.969940,174.249146 306.061340,167.155807   C298.731506,162.629913 291.739532,158.312668 284.926483,153.689911   C289.089905,146.549133 293.074371,139.713837 297.088440,132.827774   C304.531494,137.107727 311.435486,141.077698 318.395721,145.080032   C319.331512,143.973267 320.165741,142.986633 321.000000,142.000000  M130.917786,70.453362   C127.480354,76.416649 124.042915,82.379944 120.469955,88.578354   C128.010666,92.922729 134.976013,96.935638 142.173782,101.082443   C146.435730,93.652756 150.433548,86.683525 154.595871,79.427521   C147.245193,75.170418 140.385239,71.197525 133.282242,67.083862   C132.577621,68.033669 131.912949,68.929626 130.917786,70.453362  z"/> -->
<path fill="#FF014D" opacity="1.000000" stroke="none" d=" M321.000000,141.531342   C320.165741,142.986633 319.331512,143.973267 318.395721,145.080032   C311.435486,141.077698 304.531494,137.107727 297.088440,132.827774   C293.074371,139.713837 289.089905,146.549133 284.760376,153.682007   C284.415314,153.979614 284.082733,153.974167 284.082733,153.974167   C277.162415,150.082718 270.242096,146.191254 262.843506,142.030869   C258.678345,149.172348 254.606400,156.154037 250.309845,163.520798   C221.506256,146.896088 192.904556,130.387894 163.834763,113.609528   C167.905090,106.469597 171.893692,99.473061 176.190720,91.935478   C169.130310,87.825790 162.156784,83.766678 154.718384,79.436966   C158.785553,72.320618 162.782883,65.326500 167.067123,57.830349   C159.979797,53.686829 153.021530,49.618767 145.492249,45.216862   C153.971085,30.559937 162.340546,16.092075 170.855011,1.312107   C220.924744,1.000000 270.849487,1.000000 321.000000,1.000000   C321.000000,47.687317 321.000000,94.375000 321.000000,141.531342  M213.171021,77.734688   C220.482193,65.088676 227.793350,52.442665 235.284042,39.486111   C227.992203,35.281857 220.996796,31.248522 213.779999,27.087534   C205.367371,41.682243 197.189468,55.869709 188.893677,70.261719   C196.254700,74.497688 203.124481,78.450966 210.207626,82.527031   C211.255936,80.874687 212.044525,79.631729 213.171021,77.734688  M276.682709,68.183907   C269.141388,81.255219 261.600067,94.326538 253.863342,107.736549   C261.122742,111.933525 268.106812,115.971313 275.327698,120.146027   C283.753845,105.523514 291.925812,91.342117 300.205627,76.973549   C293.619080,73.166077 287.522400,69.789314 281.592499,66.141449   C279.212036,64.677071 278.004791,65.285942 276.682709,68.183907  z"/>
<path fill="#00AEFE" opacity="1.000000" stroke="none" d=" M25.090528,189.054871   C25.090530,189.054871 25.439016,188.900665 25.829151,189.181747   C33.000027,193.489197 39.780766,197.515564 47.013062,201.810059   C50.727161,195.495636 53.925587,189.743042 57.444965,184.194000   C59.517384,180.926422 58.499840,179.305817 55.415569,177.658707   C49.433208,174.463913 43.613865,170.963867 37.726967,167.590332   C37.726967,167.590332 37.682583,167.556305 37.943577,167.275543   C42.241573,160.082123 46.278576,153.169479 50.602528,145.765503   C42.597534,141.507187 35.216183,137.580627 27.834833,133.654068   C31.925209,126.288780 36.015583,118.923500 40.295914,111.216171   C48.083523,115.699455 55.397213,119.909904 63.068302,124.326103   C58.960167,131.504333 54.960075,138.493774 50.698559,145.940018   C57.852604,150.134094 64.817039,154.217010 72.186005,158.537079   C68.109848,165.667908 64.105988,172.672256 59.837978,180.138687   C66.969711,184.271912 73.922722,188.301559 81.200310,192.519302   C85.431946,185.252182 89.425430,178.394028 93.760574,170.949142   C108.179611,179.261856 122.476402,187.504105 137.180115,195.980927   C133.013550,203.257126 129.008286,210.251648 124.787270,217.622940   C131.792480,221.694916 138.648453,225.680145 146.138809,230.034134   C150.283463,222.934509 154.345978,215.975586 158.717392,208.487518   C165.687927,212.489517 172.543991,216.425781 179.693726,220.748657   C179.987396,221.326706 179.979767,221.517853 179.837296,222.048828   C175.761169,229.260849 171.812241,236.132782 167.863327,243.004715   C167.863327,243.004715 167.700775,243.242691 167.348358,242.917297   C160.890182,238.893585 154.834900,235.105621 148.618362,231.603973   C147.787399,231.135910 145.459152,231.702621 144.979141,232.492233   C141.197891,238.712234 137.697540,245.102982 133.924103,251.770935   C141.213928,256.081604 148.149033,260.182495 155.336136,264.432434   C152.020401,270.136475 149.072144,275.325409 146.008911,280.445496   C142.884308,285.668091 142.961044,285.985840 148.386368,289.175385   C153.395462,292.120270 158.351196,295.155853 163.330429,298.151489   C159.230255,305.529358 155.130096,312.907227 151.014954,320.642548   C122.645775,321.000000 94.291542,321.000000 65.603409,320.683472   C68.342911,315.113434 71.416328,309.859924 74.640739,304.348328   C82.100548,308.606079 89.090210,312.595459 96.276711,316.697174   C100.580055,309.226807 104.528328,302.372833 108.707733,295.117615   C79.667274,278.352722 51.102043,261.862183 22.171837,245.160965   C17.881329,252.589523 13.860991,259.550293 9.721411,266.717560   C17.191582,271.103302 24.143694,275.184875 31.201172,279.328339   C26.995564,286.684692 23.057552,293.572968 18.934032,300.785736   C30.509357,307.654358 41.754681,314.327179 53.000000,321.000000   C35.711922,321.000000 18.423843,321.000000 1.000000,321.000000   C1.000000,282.645874 1.000000,244.291595 1.370610,205.435455   C4.366276,206.306335 6.886824,207.991364 9.660632,208.919571   C11.040259,209.381241 13.789779,209.011887 14.371589,208.066147   C18.180708,201.874329 21.566469,195.422058 25.090528,189.054871  M43.112522,228.345276   C47.407337,230.823074 51.702148,233.300858 56.286835,235.945892   C60.496681,228.640045 64.515793,221.665207 68.753952,214.310226   C61.281342,210.003067 54.324760,205.993347 47.139111,201.851593   C42.870312,209.262039 38.844734,216.250275 34.706749,223.433655   C37.621632,225.155090 40.041004,226.583908 43.112522,228.345276  M121.247177,272.860687   C125.379074,265.959442 129.510971,259.058167 133.814911,251.869568   C126.284126,247.525726 119.435509,243.575378 112.107918,239.348740   C107.860146,246.695801 103.784180,253.745697 99.589577,261.000763   C107.019768,265.247467 113.770035,269.105560 121.247177,272.860687  z"/>
<path fill="#011835" opacity="1.000000" stroke="none" d=" M53.460640,321.000000   C41.754681,314.327179 30.509357,307.654358 18.934032,300.785736   C23.057552,293.572968 26.995564,286.684692 31.201172,279.328339   C24.143694,275.184875 17.191582,271.103302 9.721411,266.717560   C13.860991,259.550293 17.881329,252.589523 22.171837,245.160965   C51.102043,261.862183 79.667274,278.352722 108.707733,295.117615   C104.528328,302.372833 100.580055,309.226807 96.276711,316.697174   C89.090210,312.595459 82.100548,308.606079 74.640739,304.348328   C71.416328,309.859924 68.342911,315.113434 65.134750,320.683472   C61.307091,321.000000 57.614182,321.000000 53.460640,321.000000  z"/>
<path fill="#015CBA" opacity="1.000000" stroke="none" d=" M24.776852,188.891113   C21.566469,195.422058 18.180708,201.874329 14.371589,208.066147   C13.789779,209.011887 11.040259,209.381241 9.660632,208.919571   C6.886824,207.991364 4.366276,206.306335 1.370610,204.966797   C1.000000,196.645767 1.000000,188.291534 1.000000,179.468658   C2.310144,176.587967 3.843737,176.585251 6.132406,177.998352   C12.154853,181.716904 18.341764,185.169098 24.776852,188.891113  z"/>
<path fill="#015DBB" opacity="1.000000" stroke="none" d=" M163.591690,297.960754   C158.351196,295.155853 153.395462,292.120270 148.386368,289.175385   C142.961044,285.985840 142.884308,285.668091 146.008911,280.445496   C149.072144,275.325409 152.020401,270.136475 155.336136,264.432434   C148.149033,260.182495 141.213928,256.081604 133.924103,251.770935   C137.697540,245.102982 141.197891,238.712234 144.979141,232.492233   C145.459152,231.702621 147.787399,231.135910 148.618362,231.603973   C154.834900,235.105621 160.890182,238.893585 167.205795,242.896378   C163.564682,250.094543 159.713745,256.988220 155.627991,264.302216   C162.478165,268.307739 169.119766,272.191284 176.228653,276.348053   C172.044617,283.590485 167.948776,290.680237 163.591690,297.960754  z"/>
<path fill="#015DBB" opacity="1.000000" stroke="none" d=" M27.544991,133.866653   C35.216183,137.580627 42.597534,141.507187 50.602528,145.765503   C46.278576,153.169479 42.241573,160.082123 37.922508,167.257141   C30.351721,163.303207 23.063002,159.086899 15.412577,154.661346   C19.520174,147.522446 23.387663,140.800842 27.544991,133.866653  z"/>
<path fill="#FF0551" opacity="1.000000" stroke="none" d=" M131.083038,70.139473   C131.912949,68.929626 132.577621,68.033669 133.282242,67.083862   C140.385239,71.197525 147.245193,75.170418 154.595871,79.427521   C150.433548,86.683525 146.435730,93.652756 142.173782,101.082443   C134.976013,96.935638 128.010666,92.922729 120.469955,88.578354   C124.042915,82.379944 127.480354,76.416649 131.083038,70.139473  z"/>
<path fill="#FF0551" opacity="1.000000" stroke="none" d=" M284.073792,154.338913   C284.082733,153.974167 284.415314,153.979614 284.581421,153.987518   C291.739532,158.312668 298.731506,162.629913 306.061340,167.155807   C301.969940,174.249146 297.946869,181.223984 293.704987,188.578247   C286.452362,184.388290 279.497711,180.370483 272.185486,176.146103   C276.270905,168.771866 280.167908,161.737762 284.073792,154.338913  z"/>
<path fill="#015CBB" opacity="1.000000" stroke="none" d=" M37.658886,167.811768   C43.613865,170.963867 49.433208,174.463913 55.415569,177.658707   C58.499840,179.305817 59.517384,180.926422 57.444965,184.194000   C53.925587,189.743042 50.727161,195.495636 47.013062,201.810059   C39.780766,197.515564 33.000027,193.489197 26.019537,189.174042   C29.330555,182.707306 32.841324,176.529358 36.901882,169.980728   C37.590092,169.208435 37.728512,168.806824 37.866932,168.405212   C37.866932,168.405212 37.590801,168.033188 37.658886,167.811768  z"/>
<path fill="#02B0FF" opacity="1.000000" stroke="none" d=" M179.964493,221.708710   C179.979767,221.517853 179.987396,221.326706 179.986542,220.991882   C184.230118,213.827499 188.474564,206.806519 192.977737,199.357574   C199.837921,203.316971 206.497040,207.160339 213.777756,211.362457   C209.537018,218.676773 205.511368,225.620087 200.937485,232.625061   C193.580994,229.027405 186.772751,225.368057 179.964493,221.708710  z"/>
<path fill="#015DBB" opacity="1.000000" stroke="none" d=" M179.837296,222.048828   C186.772751,225.368057 193.580994,229.027405 200.685577,232.857422   C196.944626,240.242752 192.907364,247.457397 188.798431,254.800079   C181.783432,250.745850 175.182999,246.931198 168.222931,243.060638   C171.812241,236.132782 175.761169,229.260849 179.837296,222.048828  z"/>
<path fill="#015DBB" opacity="1.000000" stroke="none" d=" M37.600555,168.588379   C37.728512,168.806824 37.590092,169.208435 37.182903,169.788315   C37.054150,169.568237 37.194164,169.169891 37.600555,168.588379  z"/>
<path fill="#3A090A" opacity="1.000000" stroke="none" d=" M213.002075,78.061722   C212.044525,79.631729 211.255936,80.874687 210.207626,82.527031   C203.124481,78.450966 196.254700,74.497688 188.893677,70.261719   C197.189468,55.869709 205.367371,41.682243 213.779999,27.087534   C220.996796,31.248522 227.992203,35.281857 235.284042,39.486111   C227.793350,52.442665 220.482193,65.088676 213.002075,78.061722  z"/>
<path fill="#3A090A" opacity="1.000000" stroke="none" d=" M276.867126,67.870796   C278.004791,65.285942 279.212036,64.677071 281.592499,66.141449   C287.522400,69.789314 293.619080,73.166077 300.205627,76.973549   C291.925812,91.342117 283.753845,105.523514 275.327698,120.146027   C268.106812,115.971313 261.122742,111.933525 253.863342,107.736549   C261.600067,94.326538 269.141388,81.255219 276.867126,67.870796  z"/>
<path fill="#011A37" opacity="1.000000" stroke="none" d=" M42.786453,228.178986   C40.041004,226.583908 37.621632,225.155090 34.706749,223.433655   C38.844734,216.250275 42.870312,209.262039 47.139111,201.851593   C54.324760,205.993347 61.281342,210.003067 68.753952,214.310226   C64.515793,221.665207 60.496681,228.640045 56.286835,235.945892   C51.702148,233.300858 47.407337,230.823074 42.786453,228.178986  z"/>
<path fill="#011A37" opacity="1.000000" stroke="none" d=" M120.883743,272.912170   C113.770035,269.105560 107.019768,265.247467 99.589577,261.000763   C103.784180,253.745697 107.860146,246.695801 112.107918,239.348740   C119.435509,243.575378 126.284126,247.525726 133.814911,251.869568   C129.510971,259.058167 125.379074,265.959442 120.883743,272.912170  z"/>
</svg>