<?xml version="1.0" encoding="UTF-8" standalone="no"?>
<svg
   height="14.543364"
   width="17.791"
   version="1.1"
   id="svg5037"
   sodipodi:docname="State.svg"
   inkscape:version="1.2.2 (b0a8486541, 2022-12-01)"
   xml:space="preserve"
   xmlns:inkscape="http://www.inkscape.org/namespaces/inkscape"
   xmlns:sodipodi="http://sodipodi.sourceforge.net/DTD/sodipodi-0.dtd"
   xmlns="http://www.w3.org/2000/svg"
   xmlns:svg="http://www.w3.org/2000/svg"><defs
     id="defs5041" /><sodipodi:namedview
     id="namedview5039"
     pagecolor="#ffffff"
     bordercolor="#000000"
     borderopacity="0.25"
     inkscape:showpageshadow="2"
     inkscape:pageopacity="0.0"
     inkscape:pagecheckerboard="0"
     inkscape:deskcolor="#d1d1d1"
     showgrid="false"
     inkscape:zoom="21.599999"
     inkscape:cx="-1.9212964"
     inkscape:cy="7.5231484"
     inkscape:window-width="2014"
     inkscape:window-height="942"
     inkscape:window-x="363"
     inkscape:window-y="144"
     inkscape:window-maximized="0"
     inkscape:current-layer="svg5037" /><path
     style="fill:#ffb649;fill-opacity:1"
     d="M 4.52,13.645 Q 4.25,13.374 4.25,13 4.25,12.624 4.5,12.354 L 5.208,11.666 Q 2.979,11.395 1.489,9.802 0,8.208 0,5.895 0,3.437 1.718,1.718 3.437,0 5.895,0 H 7.562 Q 7.916,0 8.187,0.27 8.458,0.541 8.458,0.895 8.458,1.27 8.187,1.541 7.916,1.812 7.562,1.812 H 5.895 Q 4.187,1.812 3,3 1.812,4.187 1.812,5.895 1.812,7.437 2.76,8.52 3.708,9.604 5.187,9.916 L 4.5,9.229 Q 4.229,8.937 4.239,8.583 4.25,8.229 4.52,7.958 4.77,7.687 5.145,7.687 q 0.375,0 0.646,0.271 l 2.167,2.187 q 0.125,0.125 0.208,0.302 0.084,0.177 0.084,0.365 0,0.167 -0.084,0.344 -0.083,0.177 -0.208,0.323 L 5.75,13.645 Q 5.479,13.916 5.124,13.906 4.77,13.895 4.52,13.645 Z"
     id="path5035"
     inkscape:label="arrow" /><ellipse
     cx="13.75"
     cy="10.750001"
     fill="none"
     stroke-width="1.08334"
     stroke="#e0e0e0"
     id="circle678"
     style="fill:none;fill-opacity:1;stroke:#ffb649;stroke-width:1.58721;stroke-dasharray:none;stroke-opacity:1"
     rx="2.4563947"
     ry="2.4563961" /><circle
     style="fill:#ffb649;stroke-width:3.34858"
     id="path2404"
     cx="13.75"
     cy="3.2729163"
     r="3.25" /></svg>
